<svg xmlns="http://www.w3.org/2000/svg" viewBox="0 0 1000 1000" width="1000" height="1000" ><defs>
<filter id="blur2" x="-20%" y="-20%" width="140%" height="140%"><feGaussianBlur stdDeviation="2"/></filter>
<filter id="blur4" x="-30%" y="-30%" width="160%" height="160%"><feGaussianBlur stdDeviation="4"/></filter>
<filter id="blur8" x="-40%" y="-40%" width="180%" height="180%"><feGaussianBlur stdDeviation="8"/></filter>
<filter id="blur16" x="-50%" y="-50%" width="200%" height="200%"><feGaussianBlur stdDeviation="16"/></filter>
<filter id="blur30" x="-60%" y="-60%" width="220%" height="220%"><feGaussianBlur stdDeviation="30"/></filter>
<filter id="skin" x="0" y="0" width="100%" height="100%">
  <feTurbulence type="fractalNoise" baseFrequency="0.9" numOctaves="2" seed="3" result="n"/>
  <feColorMatrix in="n" type="matrix" values="0 0 0 0 0.25  0 0 0 0 0.14  0 0 0 0 0.1  1.6 0 0 0 -0.62" result="d"/>
  <feComposite in="d" in2="SourceGraphic" operator="in" result="dots"/>
  <feMerge><feMergeNode in="SourceGraphic"/><feMergeNode in="dots"/></feMerge>
</filter>
<filter id="grain" x="0" y="0" width="100%" height="100%">
  <feTurbulence type="fractalNoise" baseFrequency="1.2" numOctaves="2" seed="7" stitchTiles="stitch"/>
  <feColorMatrix type="matrix" values="0 0 0 0 0.5  0 0 0 0 0.5  0 0 0 0 0.5  0 0 0 0.55 -0.1"/>
</filter>
<filter id="rough" x="0" y="0" width="100%" height="100%">
  <feTurbulence type="fractalNoise" baseFrequency="0.035" numOctaves="4" seed="11"/>
  <feColorMatrix type="matrix" values="0 0 0 0 0  0 0 0 0 0  0 0 0 0 0  0 0 0 -1.2 0.9"/>
</filter>
<filter id="glow" x="-50%" y="-50%" width="200%" height="200%"><feGaussianBlur stdDeviation="6" result="b"/><feMerge><feMergeNode in="b"/><feMergeNode in="SourceGraphic"/></feMerge></filter>
<filter id="flame" x="-30%" y="-30%" width="160%" height="160%"><feTurbulence type="fractalNoise" baseFrequency="0.018 0.045" numOctaves="3" seed="8" result="t"/><feDisplacementMap in="SourceGraphic" in2="t" scale="70" xChannelSelector="R" yChannelSelector="G"/><feGaussianBlur stdDeviation="2"/></filter><filter id="smoke" x="-40%" y="-40%" width="180%" height="180%"><feTurbulence type="fractalNoise" baseFrequency="0.012" numOctaves="4" seed="3" result="t"/><feDisplacementMap in="SourceGraphic" in2="t" scale="120" xChannelSelector="R" yChannelSelector="G"/><feGaussianBlur stdDeviation="10"/></filter><filter id="motion" x="-50%" y="-50%" width="200%" height="200%"><feGaussianBlur stdDeviation="14 3"/></filter><linearGradient id="axeHead" x1="0" y1="0" x2="1" y2="1"><stop offset="0" stop-color="#d83a2a" stop-opacity="1"/><stop offset="0.6" stop-color="#8a1810" stop-opacity="1"/><stop offset="1" stop-color="#3a0806" stop-opacity="1"/></linearGradient><linearGradient id="axeEdge" x1="0" y1="0" x2="1" y2="0"><stop offset="0" stop-color="#f4f6f6" stop-opacity="1"/><stop offset="1" stop-color="#8a9294" stop-opacity="1"/></linearGradient><linearGradient id="handle" x1="0" y1="0" x2="1" y2="0"><stop offset="0" stop-color="#e8c040" stop-opacity="1"/><stop offset="0.5" stop-color="#b08a18" stop-opacity="1"/><stop offset="1" stop-color="#5a4408" stop-opacity="1"/></linearGradient><linearGradient id="glove" x1="0" y1="0" x2="1" y2="1"><stop offset="0" stop-color="#3a3a36" stop-opacity="1"/><stop offset="1" stop-color="#0e0e0c" stop-opacity="1"/></linearGradient><linearGradient id="slide" x1="0" y1="0" x2="1" y2="0"><stop offset="0" stop-color="#4a4e52" stop-opacity="1"/><stop offset="0.5" stop-color="#1e2022" stop-opacity="1"/><stop offset="1" stop-color="#0a0b0c" stop-opacity="1"/></linearGradient><radialGradient id="flash" ><stop offset="0" stop-color="#fffbe8" stop-opacity="1"/><stop offset="0.15" stop-color="#ffd070" stop-opacity="0.9"/><stop offset="0.45" stop-color="#ff7a20" stop-opacity="0.35"/><stop offset="1" stop-color="#ff5010" stop-opacity="0"/></radialGradient><radialGradient id="whiteFlash" ><stop offset="0" stop-color="#fff" stop-opacity="0.95"/><stop offset="0.3" stop-color="#fff" stop-opacity="0.5"/><stop offset="1" stop-color="#fff" stop-opacity="0"/></radialGradient><radialGradient id="fireCore" ><stop offset="0" stop-color="#fffbe0" stop-opacity="1"/><stop offset="0.3" stop-color="#ffd050" stop-opacity="1"/><stop offset="0.65" stop-color="#ff7010" stop-opacity="1"/><stop offset="1" stop-color="#a02000" stop-opacity="0"/></radialGradient><linearGradient id="jet" x1="1" y1="1" x2="0" y2="0"><stop offset="0" stop-color="#fff4c0" stop-opacity="1"/><stop offset="0.3" stop-color="#ffb030" stop-opacity="1"/><stop offset="0.8" stop-color="#e04008" stop-opacity="1"/><stop offset="1" stop-color="#801000" stop-opacity="0"/></linearGradient><linearGradient id="canister" x1="0" y1="0" x2="1" y2="0"><stop offset="0" stop-color="#6a7070" stop-opacity="1"/><stop offset="0.5" stop-color="#2a2e30" stop-opacity="1"/><stop offset="1" stop-color="#101214" stop-opacity="1"/></linearGradient><radialGradient id="orangeWash" ><stop offset="0" stop-color="#ff9030" stop-opacity="0.5"/><stop offset="1" stop-color="#ff6010" stop-opacity="0.15"/></radialGradient></defs><g transform="translate(760 700) rotate(-28)">
    <rect x="-24" y="-260" width="48" height="340" rx="6" fill="url(#canister)"/>
    <rect x="-34" y="-280" width="68" height="30" rx="4" fill="#1a1c1e"/>
    <rect x="-10" y="-330" width="20" height="60" fill="#3a3e40"/>
    <rect x="-40" y="-100" width="80" height="16" fill="#b82010"/>
    <ellipse cx="0" cy="-344" rx="10" ry="18" fill="#60a0ff" opacity="0.85" filter="url(#glow)"/><ellipse cx="0" cy="-348" rx="4" ry="9" fill="#e0f0ff"/>
    <rect x="-60" y="60" width="120" height="260" rx="30" fill="#2a2c2a"/>
    <g transform="translate(0 40) rotate(0) scale(1)">
    <path d="M-70 40 C-80 -10 -60 -50 -20 -56 C20 -60 60 -40 70 -6 C78 26 60 70 20 90 L-40 110Z" fill="url(#glove)"/>
    <path d="M-48 -40 C-50 -70 -22 -70 -24 -40" fill="#222220" stroke="#000" stroke-width="2"/><path d="M-24 -40 C-26 -70 2 -70 0 -40" fill="#222220" stroke="#000" stroke-width="2"/><path d="M0 -40 C-2 -70 26 -70 24 -40" fill="#222220" stroke="#000" stroke-width="2"/><path d="M24 -40 C22 -70 50 -70 48 -40" fill="#222220" stroke="#000" stroke-width="2"/>
    <path d="M-60 0 C-30 -20 30 -22 64 -4" stroke="#5a5a54" stroke-width="3" fill="none" opacity="0.5"/>
    <path d="M-66 60 L-40 140 L60 140 L40 80Z" fill="#1a1c20"/>
  </g>
  </g></svg>