<svg xmlns="http://www.w3.org/2000/svg" viewBox="0 0 768 432" width="512" height="768">
```svg

  <defs>
    <linearGradient id="bg" x1="0" y1="0" x2="0" y2="1">
      <stop offset="0" stop-color="#0b1612"/>
      <stop offset="0.55" stop-color="#12241d"/>
      <stop offset="1" stop-color="#050a08"/>
    </linearGradient>
    <radialGradient id="topLight" cx="0.5" cy="0" r="0.75">
      <stop offset="0" stop-color="#9fd8b8" stop-opacity="0.55"/>
      <stop offset="0.4" stop-color="#4f8f73" stop-opacity="0.18"/>
      <stop offset="1" stop-color="#0b1612" stop-opacity="0"/>
    </radialGradient>
    <radialGradient id="face" cx="0.45" cy="0.35" r="0.7">
      <stop offset="0" stop-color="#c9d6c4"/>
      <stop offset="0.5" stop-color="#8fa393"/>
      <stop offset="1" stop-color="#3a4a40"/>
    </radialGradient>
    <linearGradient id="suit" x1="0" y1="0" x2="0" y2="1">
      <stop offset="0" stop-color="#2a3a33"/>
      <stop offset="0.6" stop-color="#16211c"/>
      <stop offset="1" stop-color="#070c0a"/>
    </linearGradient>
    <linearGradient id="blood" x1="0" y1="0" x2="0" y2="1">
      <stop offset="0" stop-color="#7a0f12"/>
      <stop offset="0.6" stop-color="#4a0608"/>
      <stop offset="1" stop-color="#1f0203"/>
    </linearGradient>
    <radialGradient id="vig" cx="0.5" cy="0.5" r="0.72">
      <stop offset="0.55" stop-color="#000" stop-opacity="0"/>
      <stop offset="1" stop-color="#000" stop-opacity="0.85"/>
    </radialGradient>
    <filter id="grain" x="0" y="0" width="100%" height="100%">
      <feTurbulence type="fractalNoise" baseFrequency="0.85" numOctaves="3" seed="7" result="noise"/>
      <feColorMatrix in="noise" type="matrix"
        values="0 0 0 0 0.6
                0 0 0 0 0.75
                0 0 0 0 0.65
                0 0 0 0.35 0" result="tint"/>
      <feComposite in="tint" in2="SourceGraphic" operator="in" result="g"/>
      <feBlend in="SourceGraphic" in2="g" mode="overlay"/>
    </filter>
  </defs>

  <!-- 背景 -->
  <rect width="768" height="432" fill="url(#bg)"/>
  <rect width="768" height="432" fill="url(#topLight)"/>
  <!-- 墙面瓷砖线 -->
  <g stroke="#1d3129" stroke-width="1" opacity="0.6">
    <line x1="0" y1="96" x2="768" y2="96"/>
    <line x1="0" y1="160" x2="768" y2="160"/>
    <line x1="0" y1="224" x2="768" y2="224"/>
    <line x1="0" y1="288" x2="768" y2="288"/>
    <line x1="128" y1="0" x2="128" y2="320"/>
    <line x1="256" y1="0" x2="256" y2="320"/>
    <line x1="512" y1="0" x2="512" y2="320"/>
    <line x1="640" y1="0" x2="640" y2="320"/>
  </g>
  <!-- 地面 -->
  <rect x="0" y="320" width="768" height="112" fill="#070d0a"/>
  <path d="M0 320 L768 320" stroke="#2c4a3d" stroke-width="2" opacity="0.7"/>
  <!-- 地面血迹 -->
  <path d="M300 348 C330 336 400 340 430 352 C455 362 420 376 380 374 C340 373 290 366 300 348 Z" fill="url(#blood)" opacity="0.85"/>
  <path d="M430 360 C450 364 470 372 462 380 C452 386 440 376 430 360 Z" fill="#3a0507" opacity="0.8"/>

  <!-- 顶灯 -->
  <rect x="354" y="0" width="60" height="10" fill="#1a2a23"/>
  <path d="M340 10 L428 10 L418 22 L350 22 Z" fill="#26392f"/>
  <ellipse cx="384" cy="24" rx="30" ry="4" fill="#c8f0d8" opacity="0.8"/>
  <path d="M354 24 L250 320 L518 320 L414 24 Z" fill="#9fd8b8" opacity="0.06"/>

  <!-- 门卫室观察窗 -->
  <g id="guardWindow">
    <rect x="532" y="70" width="190" height="130" fill="#0d1a15" stroke="#3b5a4c" stroke-width="6"/>
    <rect x="542" y="80" width="170" height="110" fill="#1b3a2f" opacity="0.75"/>
    <!-- 窗内灯 -->
    <rect x="542" y="80" width="170" height="110" fill="url(#topLight)" opacity="0.6"/>
    <!-- 窗内门卫剪影 -->
    <path d="M600 190 L600 150 C600 132 612 122 626 122 C640 122 652 132 652 150 L652 190 Z" fill="#050907" opacity="0.9"/>
    <circle cx="626" cy="112" r="14" fill="#050907" opacity="0.9"/>
    <rect x="610" y="96" width="32" height="6" fill="#050907"/>
    <!-- 铁栅 -->
    <g stroke="#2a3f35" stroke-width="3">
      <line x1="585" y1="80" x2="585" y2="190"/>
      <line x1="627" y1="80" x2="627" y2="190"/>
      <line x1="669" y1="80" x2="669" y2="190"/>
      <line x1="542" y1="135" x2="712" y2="135"/>
    </g>
    <!-- 窗台 + 递物口 -->
    <rect x="524" y="200" width="206" height="10" fill="#22342c"/>
    <rect x="600" y="192" width="54" height="8" fill="#050907"/>
    <!-- 窗面反光 -->
    <path d="M548 86 L580 86 L548 130 Z" fill="#d8f5e4" opacity="0.08"/>
    <!-- 红色警示灯 -->
    <circle cx="700" cy="60" r="6" fill="#b3161b"/>
    <circle cx="700" cy="60" r="16" fill="#b3161b" opacity="0.18"/>
    <text x="560" y="228" font-family="monospace" font-size="11" fill="#6f9a86" opacity="0.8">北岭闸口 · 门卫室</text>
  </g>

  <!-- 前景：焚化罐喷口 -->
  <g id="incinerator">
    <path d="M0 250 L120 250 C150 250 168 268 168 296 L168 432 L0 432 Z" fill="#141c18" stroke="#2f4038" stroke-width="3"/>
    <!-- 铆钉 -->
    <g fill="#3d5147">
      <circle cx="20" cy="266" r="3"/><circle cx="60" cy="266" r="3"/><circle cx="100" cy="266" r="3"/>
      <circle cx="152" cy="310" r="3"/><circle cx="152" cy="360" r="3"/><circle cx="152" cy="410" r="3"/>
    </g>
    <!-- 喷口 -->
    <rect x="160" y="316" width="70" height="40" rx="4" fill="#1d2a24" stroke="#34493f" stroke-width="3"/>
    <rect x="224" y="310" width="16" height="52" rx="3" fill="#2a3a33"/>
    <ellipse cx="240" cy="336" rx="6" ry="20" fill="#0a0303"/>
    <!-- 喷口余烬 -->
    <ellipse cx="244" cy="336" rx="14" ry="12" fill="#7a0f12" opacity="0.45"/>
    <ellipse cx="242" cy="336" rx="5" ry="8" fill="#d2402a" opacity="0.6"/>
    <!-- 压力表 -->
    <circle cx="70" cy="320" r="22" fill="#0c1310" stroke="#4a5f55" stroke-width="3"/>
    <line x1="70" y1="320" x2="84" y2="306" stroke="#b3161b" stroke-width="2"/>
    <text x="30" y="372" font-family="monospace" font-size="10" fill="#5d7c6d">INCIN-03</text>
    <!-- 警示条纹 -->
    <path d="M0 392 L168 392 L168 404 L0 404 Z" fill="#3a0507"/>
    <g stroke="#0a0f0c" stroke-width="6">
      <line x1="10" y1="404" x2="22" y2="392"/><line x1="40" y1="404" x2="52" y2="392"/>
      <line x1="70" y1="404" x2="82" y2="392"/><line x1="100" y1="404" x2="112" y2="392"/>
      <line x1="130" y1="404" x2="142" y2="392"/>
    </g>
  </g>

  <!-- 前景：起雾的玻璃 -->
  <g id="foggedGlass">
    <rect x="0" y="0" width="768" height="432" fill="#a8c9b8" opacity="0.05" filter="url(#grain)"/>
    <ellipse cx="120" cy="80" rx="180" ry="90" fill="#cfe6da" opacity="0.07"/>
    <ellipse cx="690" cy="380" rx="200" ry="80" fill="#cfe6da" opacity="0.06"/>
    <!-- 手指擦痕 -->
    <path d="M430 40 C440 90 436 140 446 190" stroke="#0b1612" stroke-width="10" fill="none" opacity="0.25" stroke-linecap="round"/>
    <path d="M452 36 C460 84 458 130 466 172" stroke="#0b1612" stroke-width="8" fill="none" opacity="0.2" stroke-linecap="round"/>
    <!-- 水珠流痕 -->
    <g stroke="#bfe0cf" stroke-width="1.5" opacity="0.25" fill="none">
      <path d="M210 60 L212 130 L209 170"/>
      <path d="M660 30 L662 96"/>
      <path d="M330 20 L331 72 L334 104"/>
    </g>
    <g fill="#d8f0e3" opacity="0.3">
      <circle cx="209" cy="172" r="2.5"/><circle cx="662" cy="98" r="2"/><circle cx="334" cy="106" r="2"/>
    </g>
  </g>```svg
<!-- 中段：假定 viewBox="0 0 1600 900"；引用渐变 id：fireCore / fireOuter / bloodGrad / fatGrad / glassGrad / charGrad（如与 defs 不同请替换） -->
<g id="window-scene">
  <!-- 窗外夜色与火光映照 -->
  <rect x="420" y="120" width="760" height="620" fill="#0a0503"/>
  <ellipse cx="800" cy="470" rx="420" ry="360" fill="url(#fireOuter)" opacity="0.35">
    <animate attributeName="opacity" values="0.28;0.42;0.3;0.38;0.28" dur="1.3s" repeatCount="indefinite"/>
  </ellipse>

  <!-- 湿巢伪人：焦黑躯干，站立如火炬 -->
  <g id="pseudo-human">
    <path d="M800 190 C770 190 755 215 758 250 C760 280 772 300 786 312
             C745 330 725 370 722 430 C718 500 735 560 748 620
             L742 740 L778 740 L790 640 L810 640 L822 740 L858 740
             L852 620 C865 560 882 500 878 430 C875 370 855 330 814 312
             C828 300 840 280 842 250 C845 215 830 190 800 190 Z"
          fill="url(#charGrad)" stroke="#1a0c06" stroke-width="3"/>
    <!-- 过长的手臂，垂至膝下 -->
    <path d="M728 350 C690 420 680 520 688 640 C690 660 700 668 706 650 C708 560 718 470 748 400 Z" fill="url(#charGrad)"/>
    <path d="M872 350 C910 420 920 520 912 640 C910 660 900 668 894 650 C892 560 882 470 852 400 Z" fill="url(#charGrad)"/>
    <!-- 湿巢孔洞：胸腹部蜂巢状溃孔，内透火光 -->
    <g fill="url(#fireCore)" opacity="0.9">
      <ellipse cx="785" cy="400" rx="9" ry="12"/>
      <ellipse cx="812" cy="388" rx="7" ry="10"/>
      <ellipse cx="800" cy="425" rx="10" ry="8"/>
      <ellipse cx="775" cy="450" rx="6" ry="9"/>
      <ellipse cx="822" cy="445" rx="8" ry="11"/>
      <ellipse cx="798" cy="475" rx="7" ry="7"/>
      <ellipse cx="780" cy="500" rx="9" ry="6"/>
      <ellipse cx="818" cy="505" rx="6" ry="8"/>
      <animate attributeName="opacity" values="0.7;1;0.8;1;0.7" dur="0.9s" repeatCount="indefinite"/>
    </g>
    <!-- 空洞的眼与张开的嘴 -->
    <ellipse cx="786" cy="245" rx="7" ry="10" fill="url(#fireCore)"/>
    <ellipse cx="814" cy="245" rx="7" ry="10" fill="url(#fireCore)"/>
    <path d="M788 275 Q800 300 812 275 Q800 285 788 275 Z" fill="#ffdd88"/>
  </g>

  <!-- 包裹全身的火焰 -->
  <g id="flames">
    <path d="M700 740 C690 640 720 600 710 520 C700 450 740 420 730 340 C725 290 760 260 750 190
             C780 230 770 150 800 90 C830 150 820 230 850 190 C840 260 875 290 870 340
             C860 420 900 450 890 520 C880 600 910 640 900 740 Z"
          fill="url(#fireOuter)" opacity="0.75">
      <animate attributeName="d" dur="1.1s" repeatCount="indefinite"
        values="M700 740 C690 640 720 600 710 520 C700 450 740 420 730 340 C725 290 760 260 750 190 C780 230 770 150 800 90 C830 150 820 230 850 190 C840 260 875 290 870 340 C860 420 900 450 890 520 C880 600 910 640 900 740 Z;
                M705 740 C680 650 725 590 705 515 C695 440 745 425 725 335 C730 280 755 250 760 175 C785 215 780 140 805 70 C825 140 815 220 845 180 C845 255 870 295 875 335 C865 425 905 445 895 515 C885 600 915 645 895 740 Z;
                M700 740 C690 640 720 600 710 520 C700 450 740 420 730 340 C725 290 760 260 750 190 C780 230 770 150 800 90 C830 150 820 230 850 190 C840 260 875 290 870 340 C860 420 900 450 890 520 C880 600 910 640 900 740 Z"/>
    </path>
    <path d="M740 740 C735 650 760 600 752 520 C748 450 770 400 765 320 C770 270 785 240 800 170
             C815 240 830 270 835 320 C830 400 852 450 848 520 C840 600 865 650 860 740 Z"
          fill="url(#fireCore)" opacity="0.85">
      <animate attributeName="opacity" values="0.7;0.95;0.8;0.9;0.7" dur="0.7s" repeatCount="indefinite"/>
    </path>
    <!-- 手臂上的火舌 -->
    <path d="M690 650 C670 580 700 540 685 470 C700 500 715 460 710 420 C730 480 720 560 715 650 Z" fill="url(#fireOuter)" opacity="0.8"/>
    <path d="M910 650 C930 580 900 540 915 470 C900 500 885 460 890 420 C870 480 880 560 885 650 Z" fill="url(#fireOuter)" opacity="0.8"/>
    <!-- 火星 -->
    <g fill="#ffcc55">
      <circle cx="770" cy="150" r="3"><animate attributeName="cy" values="150;60" dur="2s" repeatCount="indefinite"/><animate attributeName="opacity" values="1;0" dur="2s" repeatCount="indefinite"/></circle>
      <circle cx="835" cy="170" r="2"><animate attributeName="cy" values="170;80" dur="1.6s" repeatCount="indefinite"/><animate attributeName="opacity" values="1;0" dur="1.6s" repeatCount="indefinite"/></circle>
      <circle cx="805" cy="120" r="2.5"><animate attributeName="cy" values="120;30" dur="2.4s" repeatCount="indefinite"/><animate attributeName="opacity" values="1;0" dur="2.4s" repeatCount="indefinite"/></circle>
    </g>
  </g>

  <!-- 脂肪状组织滴落 -->
  <g id="fat-drips" fill="url(#fatGrad)">
    <path d="M748 560 C744 590 746 610 750 625 C754 610 756 590 752 560 Z"/>
    <path d="M852 540 C848 575 850 600 855 615 C860 600 860 575 856 540 Z"/>
    <path d="M700 640 C697 665 699 680 703 690 C707 680 707 665 704 640 Z"/>
    <ellipse cx="750" cy="640" rx="5" ry="7"><animate attributeName="cy" values="630;735" dur="1.4s" repeatCount="indefinite"/></ellipse>
    <ellipse cx="855" cy="630" rx="4" ry="6"><animate attributeName="cy" values="620;735" dur="1.8s" repeatCount="indefinite"/></ellipse>
    <ellipse cx="703" cy="700" rx="4" ry="5"><animate attributeName="cy" values="695;738" dur="1.1s" repeatCount="indefinite"/></ellipse>
    <!-- 地面油脂积洼 -->
    <ellipse cx="800" cy="742" rx="140" ry="12" opacity="0.8"/>
  </g>

  <!-- 玻璃 -->
  <rect x="420" y="120" width="760" height="620" fill="url(#glassGrad)" opacity="0.35"/>

  <!-- 玻璃上沸腾的血与结痂 -->
  <g id="blood-on-glass">
    <path d="M610 260 C640 240 690 250 700 280 C710 310 680 330 690 360 L684 470 L676 360
             C650 350 620 340 612 310 C600 290 598 272 610 260 Z" fill="url(#bloodGrad)" opacity="0.9"/>
    <path d="M920 300 C950 285 1000 295 1005 325 C1010 350 985 360 990 390 L985 520 L978 395
             C955 385 925 370 918 345 Z" fill="url(#bloodGrad)" opacity="0.9"/>
    <!-- 结痂：焦黑边缘与龟裂 -->
    <path d="M612 262 C640 244 688 254 698 282" fill="none" stroke="#2a0805" stroke-width="5" stroke-linecap="round"/>
    <path d="M922 302 C950 288 998 298 1003 326" fill="none" stroke="#2a0805" stroke-width="5" stroke-linecap="round"/>
    <path d="M630 280 L648 300 L640 318 M660 272 L668 295 L690 305 M940 318 L958 335 M972 310 L978 340 L995 350"
          fill="none" stroke="#1a0402" stroke-width="1.5"/>
    <!-- 沸腾气泡 -->
    <g fill="none" stroke="#c0201a" stroke-width="1.5">
      <circle cx="645" cy="295" r="4"><animate attributeName="r" values="1;6;0" dur="0.8s" repeatCount="indefinite"/></circle>
      <circle cx="672" cy="312" r="3"><animate attributeName="r" values="0;5;0" dur="1.1s" repeatCount="indefinite"/></circle>
      <circle cx="955" cy="330" r="4"><animate attributeName="r" values="2;7;0" dur="0.9s" repeatCount="indefinite"/></circle>
      <circle cx="985" cy="345" r="3"><animate attributeName="r" values="0;4;0" dur="0.7s" repeatCount="indefinite"/></circle>
    </g>
    <!-- 飞溅血点 -->
    <g fill="url(#bloodGrad)">
      <circle cx="720" cy="240" r="5"/></g></g></g>```svg
  <!-- ===== 末段：火光 / 黑烟 / 焦黑组织 / 定格 / 血雾 / 颗粒 / 暗角 ===== -->

  <!-- 局部滤镜（非 defs，可直接放置于 SVG 内任意位置） -->
  <filter id="fxFireBlur" x="-50%" y="-50%" width="200%" height="200%">
    <feTurbulence type="fractalNoise" baseFrequency="0.018 0.045" numOctaves="3" seed="7" result="n"/>
    <feDisplacementMap in="SourceGraphic" in2="n" scale="38" xChannelSelector="R" yChannelSelector="G" result="d"/>
    <feGaussianBlur in="d" stdDeviation="6"/>
  </filter>
  <filter id="fxSmoke" x="-50%" y="-50%" width="200%" height="200%">
    <feTurbulence type="fractalNoise" baseFrequency="0.008 0.02" numOctaves="4" seed="21" result="n"/>
    <feDisplacementMap in="SourceGraphic" in2="n" scale="90" xChannelSelector="R" yChannelSelector="B" result="d"/>
    <feGaussianBlur in="d" stdDeviation="14"/>
  </filter>
  <filter id="fxChar" x="-20%" y="-20%" width="140%" height="140%">
    <feTurbulence type="turbulence" baseFrequency="0.09" numOctaves="3" seed="3" result="n"/>
    <feDisplacementMap in="SourceGraphic" in2="n" scale="10" xChannelSelector="R" yChannelSelector="G"/>
  </filter>
  <filter id="fxMist" x="-30%" y="-30%" width="160%" height="160%">
    <feTurbulence type="fractalNoise" baseFrequency="0.012" numOctaves="3" seed="44" result="n"/>
    <feColorMatrix in="n" type="matrix" values="0 0 0 0 0.35  0 0 0 0 0.02  0 0 0 0 0.03  0 0 0 1.4 -0.55" result="m"/>
    <feComposite in="m" in2="SourceGraphic" operator="in"/>
    <feGaussianBlur stdDeviation="3"/>
  </filter>
  <filter id="fxGrain" x="0" y="0" width="100%" height="100%">
    <feTurbulence type="fractalNoise" baseFrequency="0.9" numOctaves="2" seed="9" stitchTiles="stitch" result="g"/>
    <feColorMatrix in="g" type="saturate" values="0"/>
    <feComponentTransfer>
      <feFuncA type="table" tableValues="0 0.22"/>
    </feComponentTransfer>
  </filter>
  <radialGradient id="gFireCore" cx="50%" cy="70%" r="60%">
    <stop offset="0" stop-color="#fff3c4" stop-opacity="0.95"/>
    <stop offset="0.25" stop-color="#ffb13b" stop-opacity="0.9"/>
    <stop offset="0.55" stop-color="#e2521a" stop-opacity="0.7"/>
    <stop offset="1" stop-color="#5a0f05" stop-opacity="0"/>
  </radialGradient>
  <radialGradient id="gGlow" cx="50%" cy="80%" r="70%">
    <stop offset="0" stop-color="#ff7a1f" stop-opacity="0.45"/>
    <stop offset="1" stop-color="#ff7a1f" stop-opacity="0"/>
  </radialGradient>
  <radialGradient id="gVignette" cx="50%" cy="50%" r="72%">
    <stop offset="0.55" stop-color="#000" stop-opacity="0"/>
    <stop offset="0.85" stop-color="#050101" stop-opacity="0.6"/>
    <stop offset="1" stop-color="#000" stop-opacity="0.92"/>
  </radialGradient>
  <linearGradient id="gCharEdge" x1="0" y1="0" x2="0" y2="1">
    <stop offset="0" stop-color="#1a0d08"/>
    <stop offset="0.7" stop-color="#0b0605"/>
    <stop offset="1" stop-color="#ff6a1a" stop-opacity="0.85"/>
  </linearGradient>

  <!-- 1. 橙色火光：环境泛光 + 火舌 -->
  <g id="fire" style="mix-blend-mode:screen">
    <rect x="0" y="0" width="100%" height="100%" fill="url(#gGlow)"/>
    <g filter="url(#fxFireBlur)">
      <path d="M300,1024 C290,900 340,860 330,760 C380,830 400,700 440,640 C450,740 500,720 520,600 C560,700 610,690 600,780 C650,730 690,800 700,880 C720,940 730,990 740,1024 Z" fill="url(#gFireCore)"/>
      <path d="M160,1024 C170,950 210,930 200,860 C240,900 260,840 280,800 C300,880 320,930 310,1024 Z" fill="#ff8a2a" opacity="0.7"/>
      <path d="M760,1024 C750,940 790,900 780,830 C830,880 850,820 880,780 C890,860 910,930 900,1024 Z" fill="#ff7020" opacity="0.65"/>
    </g>
    <!-- 定格火星：静止的圆点与短拖影 -->
    <g fill="#ffcf6a">
      <circle cx="412" cy="560" r="3"/><circle cx="468" cy="512" r="2.2"/>
      <circle cx="560" cy="540" r="2.6"/><circle cx="610" cy="470" r="1.8"/>
      <circle cx="350" cy="620" r="2"/><circle cx="690" cy="600" r="2.4"/>
      <circle cx="520" cy="430" r="1.6"/><circle cx="640" cy="390" r="1.4"/>
    </g>
    <g stroke="#ffb040" stroke-width="1.4" stroke-linecap="round" opacity="0.55">
      <line x1="412" y1="560" x2="408" y2="584"/><line x1="468" y1="512" x2="466" y2="530"/>
      <line x1="560" y1="540" x2="563" y2="562"/><line x1="690" y1="600" x2="694" y2="620"/>
    </g>
  </g>

  <!-- 2. 黑烟：多层翻卷 -->
  <g id="smoke" filter="url(#fxSmoke)">
    <path d="M200,700 C150,560 260,470 230,340 C300,400 380,300 420,220 C470,320 560,260 600,160 C660,260 760,300 800,420 C860,520 820,640 760,700 Z" fill="#0a0808" opacity="0.72"/></g>
</svg>