<svg xmlns="http://www.w3.org/2000/svg" viewBox="0 0 512 256" width="512" height="256" ><defs>
<filter id="blur2" x="-20%" y="-20%" width="140%" height="140%"><feGaussianBlur stdDeviation="2"/></filter>
<filter id="blur4" x="-30%" y="-30%" width="160%" height="160%"><feGaussianBlur stdDeviation="4"/></filter>
<filter id="blur8" x="-40%" y="-40%" width="180%" height="180%"><feGaussianBlur stdDeviation="8"/></filter>
<filter id="blur16" x="-50%" y="-50%" width="200%" height="200%"><feGaussianBlur stdDeviation="16"/></filter>
<filter id="blur30" x="-60%" y="-60%" width="220%" height="220%"><feGaussianBlur stdDeviation="30"/></filter>
<filter id="skin" x="0" y="0" width="100%" height="100%">
  <feTurbulence type="fractalNoise" baseFrequency="0.9" numOctaves="2" seed="3" result="n"/>
  <feColorMatrix in="n" type="matrix" values="0 0 0 0 0.25  0 0 0 0 0.14  0 0 0 0 0.1  1.6 0 0 0 -0.62" result="d"/>
  <feComposite in="d" in2="SourceGraphic" operator="in" result="dots"/>
  <feMerge><feMergeNode in="SourceGraphic"/><feMergeNode in="dots"/></feMerge>
</filter>
<filter id="grain" x="0" y="0" width="100%" height="100%">
  <feTurbulence type="fractalNoise" baseFrequency="1.2" numOctaves="2" seed="7" stitchTiles="stitch"/>
  <feColorMatrix type="matrix" values="0 0 0 0 0.5  0 0 0 0 0.5  0 0 0 0 0.5  0 0 0 0.55 -0.1"/>
</filter>
<filter id="rough" x="0" y="0" width="100%" height="100%">
  <feTurbulence type="fractalNoise" baseFrequency="0.035" numOctaves="4" seed="11"/>
  <feColorMatrix type="matrix" values="0 0 0 0 0  0 0 0 0 0  0 0 0 0 0  0 0 0 -1.2 0.9"/>
</filter>
<filter id="glow" x="-50%" y="-50%" width="200%" height="200%"><feGaussianBlur stdDeviation="6" result="b"/><feMerge><feMergeNode in="b"/><feMergeNode in="SourceGraphic"/></feMerge></filter>
</defs><rect width="512" height="256" fill="#1a1208"/><rect x="6" y="39.6" width="51.8" height="216.4" fill="#6a5a3a"/><rect x="6" y="39.6" width="3" height="216.4" fill="#fff" opacity="0.1"/><rect x="10" y="59.6" width="43.8" height="6" fill="#c8a040" opacity="0.7"/><rect x="10" y="226" width="43.8" height="6" fill="#c8a040" opacity="0.7"/><rect x="59.8" y="49.9" width="24.3" height="206.1" fill="#1e3a4a"/><rect x="59.8" y="49.9" width="3" height="206.1" fill="#fff" opacity="0.1"/><rect x="63.8" y="69.9" width="16.3" height="6" fill="#c8a040" opacity="0.7"/><rect x="63.8" y="226" width="16.3" height="6" fill="#c8a040" opacity="0.7"/><rect x="86.1" y="22.2" width="29.7" height="233.8" fill="#2a3a1e"/><rect x="86.1" y="22.2" width="3" height="233.8" fill="#fff" opacity="0.1"/><rect x="90.1" y="42.2" width="21.7" height="6" fill="#c8a040" opacity="0.7"/><rect x="90.1" y="226" width="21.7" height="6" fill="#c8a040" opacity="0.7"/><rect x="117.8" y="80.5" width="50.4" height="175.5" fill="#6a5a3a"/><rect x="117.8" y="80.5" width="3" height="175.5" fill="#fff" opacity="0.1"/><rect x="121.8" y="100.5" width="42.4" height="6" fill="#c8a040" opacity="0.7"/><rect x="121.8" y="226" width="42.4" height="6" fill="#c8a040" opacity="0.7"/><rect x="170.1" y="28.5" width="27.7" height="227.5" fill="#2a3a1e"/><rect x="170.1" y="28.5" width="3" height="227.5" fill="#fff" opacity="0.1"/><rect x="174.1" y="48.5" width="19.7" height="6" fill="#c8a040" opacity="0.7"/><rect x="174.1" y="226" width="19.7" height="6" fill="#c8a040" opacity="0.7"/><rect x="199.8" y="44.8" width="42.6" height="211.2" fill="#4a3a1a"/><rect x="199.8" y="44.8" width="3" height="211.2" fill="#fff" opacity="0.1"/><rect x="203.8" y="64.8" width="34.6" height="6" fill="#c8a040" opacity="0.7"/><rect x="203.8" y="226" width="34.6" height="6" fill="#c8a040" opacity="0.7"/><rect x="244.4" y="68.2" width="26.2" height="187.8" fill="#6a5a3a"/><rect x="244.4" y="68.2" width="3" height="187.8" fill="#fff" opacity="0.1"/><rect x="248.4" y="88.2" width="18.2" height="6" fill="#c8a040" opacity="0.7"/><rect x="248.4" y="226" width="18.2" height="6" fill="#c8a040" opacity="0.7"/><rect x="272.6" y="36" width="31.6" height="220" fill="#1a1a1a"/><rect x="272.6" y="36" width="3" height="220" fill="#fff" opacity="0.1"/><rect x="276.6" y="56" width="23.6" height="6" fill="#c8a040" opacity="0.7"/><rect x="276.6" y="226" width="23.6" height="6" fill="#c8a040" opacity="0.7"/><rect x="306.2" y="59.4" width="49.4" height="196.6" fill="#5a1a14"/><rect x="306.2" y="59.4" width="3" height="196.6" fill="#fff" opacity="0.1"/><rect x="310.2" y="79.4" width="41.4" height="6" fill="#c8a040" opacity="0.7"/><rect x="310.2" y="226" width="41.4" height="6" fill="#c8a040" opacity="0.7"/><rect x="357.6" y="37.1" width="49.3" height="218.9" fill="#3a1a3a"/><rect x="357.6" y="37.1" width="3" height="218.9" fill="#fff" opacity="0.1"/><rect x="361.6" y="57.1" width="41.3" height="6" fill="#c8a040" opacity="0.7"/><rect x="361.6" y="226" width="41.3" height="6" fill="#c8a040" opacity="0.7"/><rect x="408.9" y="9.1" width="35.6" height="246.9" fill="#3a1a3a"/><rect x="408.9" y="9.1" width="3" height="246.9" fill="#fff" opacity="0.1"/><rect x="412.9" y="29.1" width="27.6" height="6" fill="#c8a040" opacity="0.7"/><rect x="412.9" y="226" width="27.6" height="6" fill="#c8a040" opacity="0.7"/><rect x="446.5" y="43" width="44.1" height="213" fill="#5a1a14"/><rect x="446.5" y="43" width="3" height="213" fill="#fff" opacity="0.1"/><rect x="450.5" y="63" width="36.1" height="6" fill="#c8a040" opacity="0.7"/><rect x="450.5" y="226" width="36.1" height="6" fill="#c8a040" opacity="0.7"/></svg>