<svg xmlns="http://www.w3.org/2000/svg" viewBox="0 0 1000 1000" width="1000" height="1000" ><defs>
<filter id="blur2" x="-20%" y="-20%" width="140%" height="140%"><feGaussianBlur stdDeviation="2"/></filter>
<filter id="blur4" x="-30%" y="-30%" width="160%" height="160%"><feGaussianBlur stdDeviation="4"/></filter>
<filter id="blur8" x="-40%" y="-40%" width="180%" height="180%"><feGaussianBlur stdDeviation="8"/></filter>
<filter id="blur16" x="-50%" y="-50%" width="200%" height="200%"><feGaussianBlur stdDeviation="16"/></filter>
<filter id="blur30" x="-60%" y="-60%" width="220%" height="220%"><feGaussianBlur stdDeviation="30"/></filter>
<filter id="skin" x="0" y="0" width="100%" height="100%">
  <feTurbulence type="fractalNoise" baseFrequency="0.9" numOctaves="2" seed="3" result="n"/>
  <feColorMatrix in="n" type="matrix" values="0 0 0 0 0.25  0 0 0 0 0.14  0 0 0 0 0.1  1.6 0 0 0 -0.62" result="d"/>
  <feComposite in="d" in2="SourceGraphic" operator="in" result="dots"/>
  <feMerge><feMergeNode in="SourceGraphic"/><feMergeNode in="dots"/></feMerge>
</filter>
<filter id="grain" x="0" y="0" width="100%" height="100%">
  <feTurbulence type="fractalNoise" baseFrequency="1.2" numOctaves="2" seed="7" stitchTiles="stitch"/>
  <feColorMatrix type="matrix" values="0 0 0 0 0.5  0 0 0 0 0.5  0 0 0 0 0.5  0 0 0 0.55 -0.1"/>
</filter>
<filter id="rough" x="0" y="0" width="100%" height="100%">
  <feTurbulence type="fractalNoise" baseFrequency="0.035" numOctaves="4" seed="11"/>
  <feColorMatrix type="matrix" values="0 0 0 0 0  0 0 0 0 0  0 0 0 0 0  0 0 0 -1.2 0.9"/>
</filter>
<filter id="glow" x="-50%" y="-50%" width="200%" height="200%"><feGaussianBlur stdDeviation="6" result="b"/><feMerge><feMergeNode in="b"/><feMergeNode in="SourceGraphic"/></feMerge></filter>
</defs><g filter="url(#blur2)" opacity="0.85"><ellipse cx="500" cy="420" rx="22" ry="28" fill="#000"/><path d="M470 450 C460 470 452 540 456 620 L470 660 L530 660 L544 620 C548 540 540 470 530 450Z" fill="#000"/><path d="M456 470 L430 600 L440 604 L466 490Z M544 470 L572 610 L562 614 L534 490Z" fill="#000"/></g><circle cx="492" cy="416" r="2" fill="#e8e0d0" opacity="0.8"/><circle cx="508" cy="416" r="2" fill="#e8e0d0" opacity="0.8"/></svg>