<svg xmlns="http://www.w3.org/2000/svg" viewBox="0 0 512 1024" width="512" height="1024" ><defs>
<filter id="blur2" x="-20%" y="-20%" width="140%" height="140%"><feGaussianBlur stdDeviation="2"/></filter>
<filter id="blur4" x="-30%" y="-30%" width="160%" height="160%"><feGaussianBlur stdDeviation="4"/></filter>
<filter id="blur8" x="-40%" y="-40%" width="180%" height="180%"><feGaussianBlur stdDeviation="8"/></filter>
<filter id="blur16" x="-50%" y="-50%" width="200%" height="200%"><feGaussianBlur stdDeviation="16"/></filter>
<filter id="blur30" x="-60%" y="-60%" width="220%" height="220%"><feGaussianBlur stdDeviation="30"/></filter>
<filter id="skin" x="0" y="0" width="100%" height="100%">
  <feTurbulence type="fractalNoise" baseFrequency="0.9" numOctaves="2" seed="3" result="n"/>
  <feColorMatrix in="n" type="matrix" values="0 0 0 0 0.25  0 0 0 0 0.14  0 0 0 0 0.1  1.6 0 0 0 -0.62" result="d"/>
  <feComposite in="d" in2="SourceGraphic" operator="in" result="dots"/>
  <feMerge><feMergeNode in="SourceGraphic"/><feMergeNode in="dots"/></feMerge>
</filter>
<filter id="grain" x="0" y="0" width="100%" height="100%">
  <feTurbulence type="fractalNoise" baseFrequency="1.2" numOctaves="2" seed="7" stitchTiles="stitch"/>
  <feColorMatrix type="matrix" values="0 0 0 0 0.5  0 0 0 0 0.5  0 0 0 0 0.5  0 0 0 0.55 -0.1"/>
</filter>
<filter id="rough" x="0" y="0" width="100%" height="100%">
  <feTurbulence type="fractalNoise" baseFrequency="0.035" numOctaves="4" seed="11"/>
  <feColorMatrix type="matrix" values="0 0 0 0 0  0 0 0 0 0  0 0 0 0 0  0 0 0 -1.2 0.9"/>
</filter>
<filter id="glow" x="-50%" y="-50%" width="200%" height="200%"><feGaussianBlur stdDeviation="6" result="b"/><feMerge><feMergeNode in="b"/><feMergeNode in="SourceGraphic"/></feMerge></filter>
<linearGradient id="cb" x1="0" y1="0" x2="1" y2="1"><stop offset="0" stop-color="#3a4a3a" stop-opacity="1"/><stop offset="1" stop-color="#1e261e" stop-opacity="1"/></linearGradient><filter id="cbn" x="0" y="0" width="100%" height="100%"><feTurbulence type="fractalNoise" baseFrequency="0.5" numOctaves="3" seed="13" stitchTiles="stitch"/><feColorMatrix type="matrix" values="0 0 0 0 0.1  0 0 0 0 0.12  0 0 0 0 0.1  1.2 0 0 0 -0.6"/></filter></defs><rect width="512" height="1024" fill="url(#cb)"/><rect width="512" height="1024" filter="url(#cbn)" opacity="0.4"/><rect x="90" y="100" width="332" height="10" rx="4" fill="#0e140e"/><rect x="90" y="126" width="332" height="10" rx="4" fill="#0e140e"/><rect x="90" y="152" width="332" height="10" rx="4" fill="#0e140e"/><rect x="90" y="178" width="332" height="10" rx="4" fill="#0e140e"/><rect x="90" y="204" width="332" height="10" rx="4" fill="#0e140e"/><rect x="90" y="230" width="332" height="10" rx="4" fill="#0e140e"/><rect x="70" y="330" width="372" height="90" fill="#b82010"/><text x="256" y="392" font-family="Impact,Arial Black,sans-serif" font-size="56" text-anchor="middle" fill="#f0e8d8" letter-spacing="8">ARMORY</text><text x="256" y="470" font-family="Arial,sans-serif" font-size="22" text-anchor="middle" fill="#c8c8b0">AUTHORIZED EXECUTION ONLY</text><rect x="400" y="560" width="30" height="120" rx="6" fill="#8a8e88"/><rect x="404" y="564" width="8" height="112" fill="#d0d4ce" opacity="0.5"/><rect x="226" y="820" width="60" height="44" rx="4" fill="#1a1a1a"/><circle cx="256" cy="842" r="8" fill="#c8a040"/><rect x="20" y="34" width="472" height="12" fill="#141a14"/><rect x="20" y="978" width="472" height="12" fill="#141a14"/></svg>