<svg xmlns="http://www.w3.org/2000/svg" viewBox="0 0 512 1024" width="512" height="1024" ><defs>
<filter id="blur2" x="-20%" y="-20%" width="140%" height="140%"><feGaussianBlur stdDeviation="2"/></filter>
<filter id="blur4" x="-30%" y="-30%" width="160%" height="160%"><feGaussianBlur stdDeviation="4"/></filter>
<filter id="blur8" x="-40%" y="-40%" width="180%" height="180%"><feGaussianBlur stdDeviation="8"/></filter>
<filter id="blur16" x="-50%" y="-50%" width="200%" height="200%"><feGaussianBlur stdDeviation="16"/></filter>
<filter id="blur30" x="-60%" y="-60%" width="220%" height="220%"><feGaussianBlur stdDeviation="30"/></filter>
<filter id="skin" x="0" y="0" width="100%" height="100%">
  <feTurbulence type="fractalNoise" baseFrequency="0.9" numOctaves="2" seed="3" result="n"/>
  <feColorMatrix in="n" type="matrix" values="0 0 0 0 0.25  0 0 0 0 0.14  0 0 0 0 0.1  1.6 0 0 0 -0.62" result="d"/>
  <feComposite in="d" in2="SourceGraphic" operator="in" result="dots"/>
  <feMerge><feMergeNode in="SourceGraphic"/><feMergeNode in="dots"/></feMerge>
</filter>
<filter id="grain" x="0" y="0" width="100%" height="100%">
  <feTurbulence type="fractalNoise" baseFrequency="1.2" numOctaves="2" seed="7" stitchTiles="stitch"/>
  <feColorMatrix type="matrix" values="0 0 0 0 0.5  0 0 0 0 0.5  0 0 0 0 0.5  0 0 0 0.55 -0.1"/>
</filter>
<filter id="rough" x="0" y="0" width="100%" height="100%">
  <feTurbulence type="fractalNoise" baseFrequency="0.035" numOctaves="4" seed="11"/>
  <feColorMatrix type="matrix" values="0 0 0 0 0  0 0 0 0 0  0 0 0 0 0  0 0 0 -1.2 0.9"/>
</filter>
<filter id="glow" x="-50%" y="-50%" width="200%" height="200%"><feGaussianBlur stdDeviation="6" result="b"/><feMerge><feMergeNode in="b"/><feMergeNode in="SourceGraphic"/></feMerge></filter>
<linearGradient id="dr" x1="0" y1="0" x2="1" y2="1"><stop offset="0" stop-color="#4a5054" stop-opacity="1"/><stop offset="1" stop-color="#2a2e32" stop-opacity="1"/></linearGradient><filter id="rust" x="0" y="0" width="100%" height="100%"><feTurbulence type="fractalNoise" baseFrequency="0.05" numOctaves="4" seed="12" stitchTiles="stitch"/><feColorMatrix type="matrix" values="0 0 0 0 0.3  0 0 0 0 0.12  0 0 0 0 0.04  1.6 0 0 0 -0.8"/></filter></defs><rect width="512" height="1024" fill="url(#dr)"/><rect width="512" height="1024" filter="url(#rust)" opacity="0.45"/><rect x="40" y="40" width="432" height="420" rx="6" fill="none" stroke="#1a1e20" stroke-width="6"/><rect x="40" y="540" width="432" height="440" rx="6" fill="none" stroke="#1a1e20" stroke-width="6"/><rect x="46" y="46" width="420" height="4" fill="#7a8084" opacity="0.5"/><rect x="120" y="120" width="272" height="150" fill="#e8d44a"/><rect x="128" y="128" width="256" height="134" fill="none" stroke="#1a1a1a" stroke-width="4"/><text x="256" y="190" font-family="Impact,Arial Black,sans-serif" font-size="46" text-anchor="middle" fill="#1a1a1a">NO EXIT</text><text x="256" y="240" font-family="Arial,sans-serif" font-size="20" text-anchor="middle" fill="#1a1a1a" font-weight="bold">UNTIL DAWN · 06:00</text><path d="M40 1000 L472 1000" stroke="#e8d44a" stroke-width="30" stroke-dasharray="40 40"/><circle cx="60" cy="500" r="6" fill="#1e2224"/><circle cx="104" cy="500" r="6" fill="#1e2224"/><circle cx="148" cy="500" r="6" fill="#1e2224"/><circle cx="192" cy="500" r="6" fill="#1e2224"/><circle cx="236" cy="500" r="6" fill="#1e2224"/><circle cx="280" cy="500" r="6" fill="#1e2224"/><circle cx="324" cy="500" r="6" fill="#1e2224"/><circle cx="368" cy="500" r="6" fill="#1e2224"/><circle cx="412" cy="500" r="6" fill="#1e2224"/><circle cx="456" cy="500" r="6" fill="#1e2224"/></svg>